<svg width="56" height="56" viewBox="0 0 238 56" fill="none" xmlns="http://www.w3.org/2000/svg">
<path d="M33.1999 5.59574C33.1999 8.68576 30.7306 11.1915 27.6854 11.1915C24.6403 11.1915 22.171 8.68576 22.171 5.59574C22.171 2.50572 24.6459 0 27.691 0C30.7361 0 33.2054 2.50572 33.2054 5.59574H33.1999Z" fill="url(#paint0_linear_551_33)"/>
<path d="M4.72529 33.5688C5.43951 33.67 6.13158 33.6306 6.77936 33.479C7.4216 33.3273 8.09153 33.5464 8.5566 34.0239L10.6494 36.1476C11.109 36.6139 11.3304 37.2937 11.1754 37.9342C11.0259 38.5859 10.9816 39.277 11.0813 39.9961C11.4079 42.4512 13.3623 44.4289 15.7818 44.7659C16.4905 44.8615 17.1715 44.8221 17.8137 44.6704C18.4504 44.5187 19.1148 44.7379 19.5744 45.2042L21.5675 47.2267C22.0381 47.7043 22.2541 48.4009 22.0935 49.0526C21.9551 49.6088 21.8997 50.1931 21.9385 50.7999C22.1323 53.6203 24.4576 55.9013 27.2425 55.9968C30.3762 56.1035 32.9507 53.5585 32.9507 50.4066C32.9507 49.9797 32.9009 49.5639 32.8123 49.1594C32.6628 48.5077 32.84 47.8279 33.3051 47.3559L35.4311 45.1985C35.8906 44.7322 36.5606 44.5075 37.1917 44.6648C37.834 44.8165 38.515 44.8615 39.2236 44.7603C41.6431 44.4289 43.5975 42.4456 43.9242 39.9905C44.0183 39.2713 43.9796 38.5803 43.8301 37.9286C43.6806 37.2825 43.8965 36.6083 44.356 36.142L46.4489 34.0183C46.9139 33.5464 47.5839 33.3216 48.2261 33.4733C48.8739 33.6306 49.566 33.67 50.2802 33.5632C52.7163 33.2149 54.6651 31.198 54.9586 28.7203C55.3904 25.0853 52.3841 22.0346 48.8019 22.4729C46.3769 22.7706 44.4003 24.7202 44.0405 27.1753C43.9353 27.8888 43.963 28.5799 44.1069 29.226C44.2453 29.8721 44.0239 30.5406 43.5643 31.0126L41.3718 33.2374C40.9123 33.7037 40.2535 33.8835 39.6167 33.743C39.1129 33.6363 38.5869 33.5969 38.0388 33.6363C35.3647 33.8441 33.1722 36.0633 32.9673 38.7825C32.9286 39.3331 32.9673 39.8725 33.0725 40.3837C33.2054 41.0298 33.0338 41.6984 32.5742 42.1647L30.343 44.4289C29.8835 44.8952 29.2191 45.075 28.5824 44.9345C28.2114 44.8558 27.8294 44.8109 27.4363 44.8109C27.0764 44.8109 26.7221 44.8446 26.3788 44.9176C25.7476 45.0469 25.0888 44.8727 24.6348 44.4064L22.4257 42.1647C21.9662 41.6984 21.789 41.0298 21.9274 40.3837C22.0326 39.8725 22.0714 39.3387 22.0326 38.7825C21.8278 36.0689 19.6408 33.8441 16.9611 33.6363C16.4185 33.5969 15.887 33.6363 15.3832 33.743C14.7465 33.8835 14.0876 33.7037 13.6281 33.2374L11.4356 31.0126C10.9761 30.5462 10.7546 29.8721 10.893 29.226C11.0314 28.5799 11.0647 27.8888 10.9595 27.1753C10.5996 24.7258 8.62304 22.7706 6.19802 22.4729C2.6214 22.0403 -0.390497 25.091 0.0413555 28.7259C0.334794 31.2036 2.28367 33.2149 4.71976 33.5688H4.72529Z" fill="url(#paint1_linear_551_33)"/>
<path d="M18.0518 22.2257C17.404 22.3774 16.712 22.4167 15.9977 22.3156H16.0033C13.5672 21.9672 11.6183 19.9503 11.3249 17.4727C10.8875 13.8377 13.8994 10.787 17.4815 11.2252C19.9066 11.523 21.8831 13.4781 22.243 15.9276C22.3482 16.6412 22.315 17.3322 22.1766 17.9783C22.0381 18.6244 22.2596 19.2986 22.7191 19.7649L24.8895 21.9672C25.3435 22.4335 26.0023 22.6077 26.6335 22.4785C26.9768 22.4054 27.3311 22.3717 27.691 22.3717C28.0841 22.3717 28.4661 22.4167 28.837 22.4953C29.4738 22.6358 30.1381 22.456 30.5977 21.9897L32.7902 19.7649C33.2497 19.293 33.4712 18.6244 33.3327 17.9783C33.1888 17.3322 33.1611 16.6412 33.2663 15.9276C33.6262 13.4725 35.6027 11.523 38.0278 11.2252C41.6099 10.787 44.6163 13.8377 44.1844 17.4727C43.891 19.9503 41.9421 21.9616 39.506 22.3099C38.7918 22.4167 38.0997 22.3774 37.452 22.22C36.8097 22.0684 36.1398 22.2931 35.6747 22.765L33.5542 24.9168C33.0891 25.3887 32.912 26.0685 33.0614 26.7202C33.15 27.1247 33.1999 27.5405 33.1999 27.9675C33.1999 31.1193 30.6254 33.6644 27.4917 33.5576C24.7068 33.4621 22.3814 31.1811 22.1876 28.3608C22.1489 27.754 22.2042 27.1697 22.3427 26.6135C22.5087 25.9562 22.2873 25.2651 21.8167 24.7876L19.8291 22.7706C19.364 22.2931 18.6941 22.074 18.0518 22.2257Z" fill="url(#paint2_linear_551_33)"/>
<defs>
<linearGradient id="paint0_linear_551_33" x1="27.7519" y1="58.0643" x2="27.7519" y2="5.88789" gradientUnits="userSpaceOnUse">
<stop offset="0.255208" stop-color="#00B3EB"/>
<stop offset="0.552083" stop-color="#3062FB"/>
<stop offset="1" stop-color="#BB10E0"/>
</linearGradient>
<linearGradient id="paint1_linear_551_33" x1="27.7519" y1="58.0643" x2="27.7519" y2="5.88789" gradientUnits="userSpaceOnUse">
<stop offset="0.255208" stop-color="#00B3EB"/>
<stop offset="0.552083" stop-color="#3062FB"/>
<stop offset="1" stop-color="#BB10E0"/>
</linearGradient>
<linearGradient id="paint2_linear_551_33" x1="27.7519" y1="58.0643" x2="27.7519" y2="5.88789" gradientUnits="userSpaceOnUse">
<stop offset="0.255208" stop-color="#00B3EB"/>
<stop offset="0.552083" stop-color="#3062FB"/>
<stop offset="1" stop-color="#BB10E0"/>
</linearGradient>
</defs>
</svg>
